<?xml version="1.0" standalone="no"?>
<!DOCTYPE svg PUBLIC "-//W3C//DTD SVG 20010904//EN"
 "http://www.w3.org/TR/2001/REC-SVG-20010904/DTD/svg10.dtd">
<svg version="1.0" xmlns="http://www.w3.org/2000/svg"
 width="300.000000pt" height="450.000000pt" viewBox="0 0 300.000000 450.000000"
 preserveAspectRatio="xMidYMid meet">
<metadata>
Created by potrace 1.10, written by Peter Selinger 2001-2011
</metadata>
<g transform="translate(0.000000,450.000000) scale(0.100000,-0.100000)"
fill="#000000" stroke="none">
<path d="M1267 3443 c-4 -3 -7 -162 -7 -353 l0 -346 57 -19 c31 -11 85 -37
120 -58 35 -21 68 -35 73 -32 6 4 10 158 10 411 l0 404 -123 0 c-68 0 -127 -3
-130 -7z m211 -58 c3 -19 -2 -20 -85 -18 -55 1 -88 6 -87 12 1 6 2 16 3 21 0
7 32 10 84 8 73 -3 82 -5 85 -23z m-8 -75 c0 -18 -7 -20 -75 -20 -68 0 -75 2
-75 20 0 18 7 20 75 20 68 0 75 -2 75 -20z m10 -332 c0 -153 -4 -278 -9 -278
-22 0 -159 71 -165 86 -7 17 -9 458 -2 465 2 2 43 4 90 4 l86 0 0 -277z"/>
<path d="M1671 3370 c-52 -15 -96 -31 -98 -36 -1 -5 3 -31 11 -59 9 -34 18
-49 27 -46 27 6 214 63 216 65 1 1 -5 25 -14 54 -11 35 -22 52 -32 51 -9 -1
-59 -14 -110 -29z m99 -35 c0 -15 -13 -22 -81 -44 -49 -15 -59 -14 -59 8 0 14
13 22 53 34 68 20 87 20 87 2z"/>
<path d="M1007 3383 c-4 -3 -7 -144 -7 -312 l0 -306 77 0 c43 0 92 -3 108 -7
l30 -7 -2 311 c-2 170 -5 314 -9 319 -6 10 -187 13 -197 2z m161 -85 c3 -46 2
-48 -20 -39 -13 5 -40 7 -60 5 -32 -4 -36 -2 -41 23 -9 49 7 64 66 61 l52 -3
3 -47z m-8 -93 c0 -23 -3 -25 -50 -25 -47 0 -50 2 -50 25 0 23 3 25 50 25 47
0 50 -2 50 -25z m15 -232 c0 -83 -3 -155 -8 -159 -11 -12 -111 -4 -119 9 -4 6
-6 82 -5 167 l2 155 52 0 c29 1 56 4 60 8 14 15 19 -30 18 -180z"/>
<path d="M1715 3218 c-55 -16 -101 -31 -103 -33 -2 -1 19 -83 47 -181 27 -99
54 -197 60 -220 l11 -41 67 14 c38 8 92 13 121 11 28 -2 52 -2 52 0 0 1 -24
91 -54 200 -30 108 -60 216 -66 240 -6 23 -16 42 -23 41 -7 0 -57 -14 -112
-31z m118 -95 c40 -133 82 -301 75 -308 -3 -3 -37 -9 -76 -12 -83 -7 -75 -17
-117 142 -15 55 -33 123 -40 150 -11 39 -12 53 -2 62 11 11 99 41 124 42 7 1
23 -34 36 -76z"/>
<path d="M983 2701 c-24 -4 -44 -9 -46 -12 -2 -2 -11 -38 -20 -79 -9 -41 -41
-185 -72 -320 -30 -135 -53 -251 -50 -259 3 -8 15 -11 30 -9 29 6 29 8 10 -62
-8 -30 -11 -58 -6 -63 5 -5 41 4 82 19 67 25 87 28 209 28 146 1 225 -16 317
-70 53 -31 68 -30 139 6 150 77 361 91 513 35 41 -15 77 -23 82 -18 5 5 2 33
-6 63 -19 70 -19 68 10 62 46 -8 48 -24 -77 518 -17 74 -37 140 -45 147 -8 6
-47 14 -86 18 -144 14 -336 -42 -430 -125 l-37 -32 -35 31 c-47 41 -137 86
-211 105 -73 19 -213 28 -271 17z m221 -56 c79 -17 171 -58 234 -104 l42 -31
0 -286 c0 -157 -3 -284 -7 -282 -231 115 -295 132 -488 133 l-141 0 32 138
c18 76 47 205 65 287 28 130 35 150 53 153 48 10 145 6 210 -8z m789 9 c25 -5
37 -12 37 -23 0 -9 29 -137 63 -286 l62 -270 -140 0 c-193 -1 -258 -19 -487
-133 -5 -2 -8 125 -8 282 l0 285 46 35 c117 90 286 133 427 110z m-800 -639
c37 -10 67 -20 67 -24 0 -3 -43 -5 -96 -3 -85 3 -215 -14 -269 -34 -12 -5 -15
2 -15 33 0 22 3 43 8 47 12 13 233 -1 305 -19z m911 19 c11 -4 16 -19 16 -46
0 -28 -4 -39 -13 -35 -64 25 -180 39 -281 35 l-111 -4 60 19 c33 10 83 22 110
27 62 9 198 12 219 4z"/>
<path d="M1438 1694 c-41 -21 -50 -69 -46 -226 3 -135 4 -138 31 -165 39 -40
105 -40 144 0 28 27 28 29 31 172 3 118 0 150 -13 179 -25 52 -92 71 -147 40z
m80 -56 c8 -8 12 -56 12 -150 0 -121 -2 -138 -18 -147 -11 -6 -24 -6 -35 0
-15 9 -17 28 -17 147 0 136 6 162 35 162 6 0 16 -5 23 -12z"/>
<path d="M2128 1694 c-15 -8 -32 -23 -38 -34 -5 -10 -10 -86 -10 -172 0 -172
5 -188 65 -208 74 -24 135 23 135 105 0 35 -1 36 -32 33 -29 -3 -33 -6 -34
-37 -2 -43 -24 -60 -54 -41 -12 7 -16 36 -18 132 -2 70 1 135 7 151 19 50 78
22 64 -31 -5 -20 -1 -22 31 -22 33 0 36 2 36 30 0 86 -78 135 -152 94z"/>
<path d="M450 1490 l0 -210 60 0 c69 0 126 20 133 47 23 80 13 147 -24 158
-19 6 -19 8 5 30 21 19 26 34 26 69 0 90 -30 116 -135 116 l-65 0 0 -210z
m114 144 c25 -9 22 -90 -3 -104 -36 -18 -41 -12 -41 50 0 62 6 69 44 54z m10
-180 c19 -18 21 -85 4 -102 -7 -7 -22 -12 -35 -12 -22 0 -23 4 -23 65 0 58 2
65 19 65 11 0 27 -7 35 -16z"/>
<path d="M700 1490 l0 -210 33 0 33 0 -1 210 0 210 -32 0 -33 0 0 -210z"/>
<path d="M820 1489 l0 -211 76 4 c69 3 79 6 100 31 34 40 34 128 0 161 -22 23
-22 25 -5 39 43 37 30 148 -21 174 -14 7 -53 13 -87 13 l-63 0 0 -211z m118
139 c17 -17 15 -74 -4 -92 -8 -9 -24 -16 -35 -16 -17 0 -19 7 -19 60 0 56 2
60 23 60 13 0 28 -5 35 -12z m-7 -168 c25 -14 28 -104 3 -114 -46 -18 -54 -9
-54 59 0 69 8 78 51 55z"/>
<path d="M1060 1490 l0 -210 90 0 90 0 0 30 c0 30 -1 30 -55 30 l-55 0 0 180
0 180 -35 0 -35 0 0 -210z"/>
<path d="M1271 1490 l2 -210 33 0 34 0 0 210 0 210 -35 0 -36 0 2 -210z"/>
<path d="M1630 1670 c0 -28 3 -30 35 -30 l35 0 0 -180 0 -180 36 0 35 0 -3
180 -3 180 33 0 c29 0 32 3 32 30 l0 30 -100 0 -100 0 0 -30z"/>
<path d="M1870 1490 l0 -210 85 0 85 0 0 30 c0 30 -1 30 -52 30 l-53 0 0 66 0
65 44 -3 c44 -3 45 -2 45 27 0 29 -2 30 -44 30 l-43 0 -1 58 -1 57 53 0 c51 0
52 0 52 30 l0 30 -85 0 -85 0 0 -210z"/>
<path d="M2380 1696 c0 -2 -16 -92 -35 -200 -19 -109 -35 -202 -35 -207 0 -6
15 -9 33 -7 30 3 32 6 35 46 3 42 4 42 42 42 41 0 50 -11 50 -61 0 -27 3 -29
36 -29 34 0 36 2 31 28 -3 15 -20 109 -38 210 l-33 182 -43 0 c-24 0 -43 -2
-43 -4z m64 -218 c7 -48 7 -48 -21 -48 l-29 0 9 73 c15 122 21 119 41 -25z"/>
</g>
</svg>
