<?xml version="1.0" standalone="no"?>
<!DOCTYPE svg PUBLIC "-//W3C//DTD SVG 20010904//EN"
 "http://www.w3.org/TR/2001/REC-SVG-20010904/DTD/svg10.dtd">
<svg version="1.0" xmlns="http://www.w3.org/2000/svg"
 width="300.000000pt" height="450.000000pt" viewBox="0 0 300.000000 450.000000"
 preserveAspectRatio="xMidYMid meet">
<metadata>
Created by potrace 1.10, written by Peter Selinger 2001-2011
</metadata>
<g transform="translate(0.000000,450.000000) scale(0.100000,-0.100000)"
fill="#000000" stroke="none">
<path d="M1493 4493 l1497 -3 0 -2240 0 -2240 -1497 -3 -1498 -2 1503 -3 1502
-2 0 2250 0 2250 -1502 -2 -1503 -3 1498 -2z"/>
<path d="M1267 3444 c-4 -4 -7 -164 -7 -355 l0 -347 38 -13 c51 -16 131 -56
168 -85 26 -19 34 -21 43 -10 8 9 10 131 9 412 l-3 399 -121 3 c-66 1 -123 -1
-127 -4z m208 -69 c0 -13 -5 -19 -15 -16 -8 2 -48 4 -87 3 -67 -1 -73 1 -73
19 0 18 6 20 88 17 79 -3 87 -5 87 -23z m-15 -70 c0 -24 -2 -25 -70 -25 -68 0
-70 1 -70 25 0 24 2 25 70 25 68 0 70 -1 70 -25z m20 -332 c0 -212 -3 -273
-12 -273 -7 0 -47 17 -88 38 l-75 37 -3 235 -2 235 90 0 90 0 0 -272z"/>
<path d="M1769 3396 c-3 -3 -47 -17 -98 -30 -52 -14 -96 -28 -99 -31 -4 -4 16
-115 21 -115 1 0 45 14 97 30 52 16 103 30 113 30 20 0 20 1 4 64 -12 45 -26
64 -38 52z m-8 -71 c1 -14 -107 -49 -128 -41 -14 6 -15 9 -2 21 29 28 129 43
130 20z"/>
<path d="M1000 3073 l0 -308 78 -1 c42 0 89 -3 105 -7 l27 -7 0 315 0 315
-105 0 -105 0 0 -307z m165 224 l0 -39 -63 -1 -62 -2 0 36 c0 20 3 39 7 43 4
4 32 6 63 4 l55 -3 0 -38z m-9 -97 c0 -17 -7 -20 -51 -20 -44 0 -51 3 -51 20
0 17 7 20 51 20 44 0 51 -3 51 -20z m9 -226 l0 -169 -50 3 c-27 1 -56 5 -62 7
-10 3 -13 46 -13 168 l0 163 63 -2 62 -1 0 -169z"/>
<path d="M1808 3245 c-3 -3 -50 -19 -104 -34 -55 -16 -98 -34 -97 -40 2 -6 29
-105 60 -221 44 -162 60 -209 71 -205 34 13 159 26 193 21 l38 -6 -10 29 c-6
16 -36 125 -68 242 -53 195 -67 230 -83 214z m22 -137 c12 -46 31 -112 41
-148 36 -127 39 -150 20 -151 -9 0 -40 -4 -69 -8 -38 -5 -58 -4 -66 4 -21 21
-100 326 -89 343 10 17 73 39 114 41 25 1 28 -4 49 -81z"/>
<path d="M997 2700 c-32 -4 -59 -9 -61 -11 -10 -10 -147 -643 -142 -655 3 -8
16 -14 30 -14 l24 0 -15 -56 c-8 -31 -11 -60 -6 -65 5 -5 42 3 83 18 58 21 99
28 183 31 129 5 218 -13 320 -64 37 -19 73 -34 81 -34 8 0 45 15 83 34 104 52
191 69 325 64 91 -4 127 -10 182 -32 41 -15 73 -23 79 -17 7 7 2 40 -19 112
-4 13 1 15 22 11 33 -6 44 11 33 52 -5 17 -39 159 -74 316 -36 156 -69 288
-74 293 -13 13 -109 24 -179 20 -127 -8 -245 -49 -334 -117 l-44 -34 -29 25
c-109 89 -311 142 -468 123z m269 -75 c75 -25 140 -60 182 -98 22 -20 22 -23
22 -304 l0 -283 -62 35 c-134 73 -315 112 -475 102 -85 -5 -93 -4 -89 11 6 19
126 549 126 556 0 25 205 12 296 -19z m749 23 c2 -2 30 -122 64 -268 33 -146
63 -275 67 -286 6 -21 4 -22 -80 -17 -158 10 -341 -28 -479 -99 -34 -18 -64
-34 -67 -35 -3 -2 -4 124 -2 279 2 203 6 286 15 297 41 49 173 113 275 131 40
8 200 6 207 -2z m-820 -636 l60 -20 -110 -1 c-69 -1 -139 -8 -187 -20 -43 -10
-80 -16 -83 -13 -4 5 1 38 11 71 7 21 230 9 309 -17z m915 -16 l0 -44 -72 20
c-60 16 -96 19 -201 15 -160 -5 -145 7 58 47 11 2 64 4 118 5 l97 1 0 -44z"/>
<path d="M450 1495 l0 -214 58 4 c31 2 65 4 75 4 10 1 29 12 42 26 21 20 25
34 25 80 0 61 -13 95 -35 95 -20 0 -19 5 10 34 29 29 33 77 11 131 -16 38 -25
41 -123 48 l-63 5 0 -213z m124 129 c18 -47 2 -94 -33 -94 -25 0 -26 2 -26 55
0 53 1 55 26 55 15 0 30 -7 33 -16z m0 -170 c36 -35 9 -119 -36 -112 -17 3
-20 12 -21 66 -2 58 0 62 20 62 12 0 29 -7 37 -16z"/>
<path d="M700 1705 c-1 -3 -1 -98 -1 -212 l0 -208 30 -3 31 -3 0 215 0 216
-30 0 c-16 0 -30 -2 -30 -5z"/>
<path d="M820 1706 c-1 -3 -1 -99 -1 -213 l-1 -208 73 2 c94 3 120 25 127 107
4 49 2 57 -22 81 -25 25 -25 26 -6 45 15 15 20 34 20 75 0 78 -27 105 -104
105 -30 0 -61 3 -70 6 -9 3 -16 3 -16 0z m115 -121 c0 -47 -2 -50 -27 -53 -28
-3 -28 -3 -28 53 0 56 0 56 28 53 25 -3 27 -6 27 -53z m3 -127 c7 -7 12 -31
12 -55 0 -32 -5 -45 -19 -53 -43 -23 -51 -14 -51 55 0 61 1 65 23 65 13 0 28
-5 35 -12z"/>
<path d="M1060 1498 l0 -213 85 -1 85 0 0 33 0 34 -50 -7 -50 -7 0 187 0 186
-35 0 -35 0 0 -212z"/>
<path d="M1270 1495 l0 -215 35 0 35 0 0 215 0 215 -35 0 -35 0 0 -215z"/>
<path d="M1419 1681 l-29 -29 0 -157 0 -157 29 -29 c23 -23 38 -29 71 -29 33
0 48 6 71 29 l29 29 0 157 0 157 -29 29 c-23 23 -38 29 -71 29 -33 0 -48 -6
-71 -29z m101 -50 c13 -25 13 -247 0 -272 -15 -28 -49 -24 -60 7 -13 34 -13
240 0 265 6 10 19 19 30 19 11 0 24 -9 30 -19z"/>
<path d="M1620 1671 c0 -32 1 -33 35 -29 l35 4 0 -183 0 -183 35 0 35 0 0 183
0 183 36 -4 c35 -4 35 -4 32 28 l-3 32 -103 1 -102 2 0 -34z"/>
<path d="M1860 1494 l0 -211 88 1 87 1 0 30 c0 30 0 30 -52 27 l-53 -4 0 66 0
66 45 0 c43 0 45 1 45 30 0 29 -2 30 -45 30 l-45 0 0 58 0 57 50 -3 50 -4 0
34 0 33 -85 0 -85 0 0 -211z"/>
<path d="M2114 1695 c-39 -26 -46 -64 -42 -220 3 -147 3 -147 31 -171 66 -57
167 -11 167 75 0 39 -2 41 -29 41 -26 0 -30 -4 -33 -31 -3 -35 -26 -56 -52
-46 -14 6 -16 26 -16 152 0 126 2 146 16 152 26 10 49 -11 52 -46 3 -27 7 -31
33 -31 27 0 29 2 29 41 0 78 -93 129 -156 84z"/>
<path d="M2374 1696 c-4 -12 -74 -396 -74 -409 0 -5 15 -7 33 -5 30 3 32 6 37
48 5 45 5 45 45 45 40 0 40 0 45 -45 5 -43 6 -45 41 -48 l35 -3 -18 98 c-11
54 -29 150 -41 213 l-23 114 -38 2 c-21 0 -40 -4 -42 -10z m61 -208 l7 -58
-27 0 -27 0 6 58 c4 31 10 73 13 92 l7 35 7 -35 c4 -19 11 -61 14 -92z"/>
</g>
</svg>
